<?xml version="1.0" standalone="no"?>
<!DOCTYPE svg PUBLIC "-//W3C//DTD SVG 20010904//EN"
 "http://www.w3.org/TR/2001/REC-SVG-20010904/DTD/svg10.dtd">
<svg version="1.0" xmlns="http://www.w3.org/2000/svg"
 width="1920.000000pt" height="1920.000000pt" viewBox="0 0 1920.000000 1920.000000"
 preserveAspectRatio="xMidYMid meet">

<g transform="translate(0.000000,1920.000000) scale(0.100000,-0.100000)"
fill="#000000" stroke="none">
<path d="M8401 16574 c-25 -21 -31 -33 -31 -66 0 -37 7 -47 79 -122 l79 -81
-79 -82 c-72 -75 -79 -86 -79 -123 0 -30 7 -47 25 -65 18 -18 35 -25 65 -25
37 0 48 7 123 79 l82 79 81 -79 c74 -71 85 -79 120 -79 42 1 64 13 82 47 26
48 16 72 -70 159 l-82 84 71 73 c77 78 93 103 93 140 0 58 -78 104 -131 77
-13 -7 -57 -44 -96 -83 l-73 -71 -84 82 c-95 93 -121 102 -175 56z"/>
<path d="M10503 15549 c-66 -19 -81 -115 -26 -159 25 -20 36 -20 738 -20 702
0 713 0 738 20 58 46 40 140 -31 159 -47 14 -1373 13 -1419 0z"/>
<path d="M12193 15549 c-41 -12 -63 -44 -63 -90 0 -29 7 -43 31 -63 28 -24 38
-26 131 -26 97 0 100 1 129 29 51 51 30 131 -39 150 -45 13 -145 13 -189 0z"/>
<path d="M6418 15309 c-213 -50 -368 -280 -331 -493 38 -225 214 -376 435
-376 222 0 402 152 439 373 36 216 -109 435 -326 493 -56 15 -160 17 -217 3z
m208 -194 c49 -20 105 -76 130 -130 58 -123 4 -272 -121 -338 -57 -30 -165
-30 -221 0 -119 63 -171 186 -132 315 13 45 77 122 119 143 67 35 155 39 225
10z"/>
<path d="M13826 14644 c-19 -20 -26 -37 -26 -67 0 -36 7 -47 79 -121 l80 -81
-80 -81 c-72 -74 -79 -85 -79 -121 0 -72 70 -115 133 -82 12 7 52 43 90 81
l70 69 82 -80 c73 -72 87 -81 120 -81 46 0 95 44 95 87 0 36 -17 62 -98 145
l-66 68 82 84 c68 69 82 89 82 116 0 46 -47 90 -95 90 -33 0 -47 -9 -119 -80
l-82 -80 -50 51 c-108 112 -166 134 -218 83z"/>
<path d="M7321 13564 c-173 -46 -308 -193 -340 -368 -15 -84 -15 -7108 0
-7192 33 -182 183 -336 362 -374 37 -7 594 -10 1892 -7 1724 3 1845 4 1915 21
553 131 932 511 1053 1056 l21 95 4 3170 c2 2331 0 3186 -8 3230 -34 179 -169
324 -345 370 -52 13 -316 15 -2280 14 -1907 0 -2228 -2 -2274 -15z m4524 -307
c26 -14 48 -37 63 -67 l22 -45 -2 -3170 -3 -3170 -27 -97 c-112 -407 -432
-702 -837 -773 -71 -13 -344 -15 -1871 -15 l-1787 0 -43 23 c-30 16 -51 37
-67 67 l-23 43 0 3545 0 3546 21 43 c13 28 35 52 62 68 l42 25 2205 0 2205 0
40 -23z"/>
<path d="M7895 12939 c-122 -18 -232 -100 -291 -216 l-29 -58 0 -1700 0 -1700
29 -60 c54 -110 156 -189 276 -214 41 -9 378 -11 1355 -9 1281 4 1301 4 1390
25 459 108 803 417 948 854 59 177 58 156 55 1539 l-3 1265 -29 58 c-61 120
-169 198 -301 217 -87 12 -3314 11 -3400 -1z m3430 -157 c60 -26 103 -64 131
-115 l29 -52 -1 -1230 c0 -1330 0 -1308 -55 -1478 -135 -414 -496 -714 -924
-766 -61 -7 -492 -11 -1346 -11 l-1257 0 -53 28 c-65 34 -114 95 -127 159 -6
31 -9 629 -7 1668 3 1797 -2 1660 68 1733 39 41 75 61 130 72 23 4 794 7 1712
6 1350 -1 1676 -4 1700 -14z"/>
<path d="M8154 8266 l-29 -24 -3 -261 -3 -261 -253 0 c-241 0 -255 -1 -280
-21 l-26 -20 0 -339 0 -339 26 -20 c25 -20 39 -21 280 -21 l253 0 3 -261 3
-261 28 -24 28 -24 323 0 c312 0 324 1 350 21 l26 20 0 265 0 264 260 0 261 0
24 25 25 24 0 331 0 331 -25 24 -24 25 -261 0 -260 0 0 259 c0 240 -1 261 -19
282 l-19 24 -330 3 -330 3 -28 -25z"/>
<path d="M11192 8139 c-78 -10 -172 -53 -233 -107 -218 -194 -193 -554 47
-708 281 -180 654 -13 692 310 37 302 -204 541 -506 505z m171 -165 c124 -42
208 -187 186 -323 -16 -103 -70 -175 -164 -222 -60 -29 -70 -31 -142 -27 -92
6 -139 26 -201 89 -59 60 -85 133 -80 224 8 115 59 194 160 244 50 25 74 31
128 31 36 0 87 -7 113 -16z"/>
<path d="M10310 7294 c-86 -23 -141 -55 -206 -119 -117 -116 -160 -272 -118
-430 50 -194 234 -336 434 -335 269 1 483 248 443 510 -42 267 -300 442 -553
374z m326 -282 c59 -30 67 -44 72 -133 6 -99 -13 -154 -75 -220 -76 -81 -204
-115 -304 -81 -47 16 -82 83 -87 169 -9 132 58 232 187 280 50 19 156 11 207
-15z"/>
<path d="M10440 7021 c-152 -47 -231 -216 -169 -362 27 -63 62 -82 144 -82
115 0 229 78 269 185 26 68 19 178 -13 212 -43 46 -158 69 -231 47z"/>
<path d="M13361 12934 c-235 -63 -377 -305 -315 -539 55 -215 278 -362 491
-326 243 41 411 267 374 501 -42 261 -300 431 -550 364z m227 -200 c123 -61
175 -207 118 -329 -93 -199 -363 -207 -460 -13 -29 58 -34 133 -14 202 15 51
99 137 148 153 66 21 151 16 208 -13z"/>
<path d="M4529 12855 c-52 -28 -58 -104 -12 -147 23 -21 33 -23 130 -23 l105
0 29 33 c16 18 29 41 29 53 0 33 -29 79 -56 89 -39 15 -195 12 -225 -5z"/>
<path d="M4981 12844 c-40 -33 -43 -89 -7 -131 l24 -28 722 0 722 0 24 28 c36
42 33 98 -7 131 l-31 26 -708 0 -708 0 -31 -26z"/>
<path d="M3501 10864 c-31 -26 -31 -26 -31 -130 0 -98 2 -107 25 -129 18 -19
35 -25 65 -25 30 0 47 6 65 25 23 22 25 31 25 125 0 99 -1 102 -29 131 -37 37
-79 38 -120 3z"/>
<path d="M15579 10861 c-28 -29 -29 -32 -29 -131 0 -94 2 -103 25 -125 18 -19
35 -25 65 -25 30 0 47 6 65 25 23 22 25 31 25 129 0 104 0 104 -31 130 -41 35
-83 34 -120 -3z"/>
<path d="M3176 10539 c-35 -41 -34 -83 3 -120 29 -28 32 -29 131 -29 94 0 103
2 125 25 19 18 25 35 25 65 0 30 -6 47 -25 65 -22 23 -31 25 -129 25 -104 0
-104 0 -130 -31z"/>
<path d="M3687 10550 c-34 -27 -43 -70 -23 -109 23 -44 44 -51 146 -51 102 0
123 7 146 51 20 39 11 82 -23 109 -22 17 -41 20 -123 20 -82 0 -101 -3 -123
-20z"/>
<path d="M15267 10550 c-34 -27 -43 -70 -23 -109 23 -44 44 -51 146 -51 102 0
123 7 146 51 20 39 11 82 -23 109 -22 17 -41 20 -123 20 -82 0 -101 -3 -123
-20z"/>
<path d="M15765 10545 c-19 -18 -25 -35 -25 -65 0 -30 6 -47 25 -65 22 -23 31
-25 125 -25 99 0 102 1 131 29 37 37 38 79 3 120 -26 31 -26 31 -130 31 -98 0
-107 -2 -129 -25z"/>
<path d="M3524 10380 c-43 -17 -54 -48 -54 -151 0 -81 3 -100 20 -122 27 -34
70 -43 109 -23 44 23 51 44 51 146 0 102 -7 123 -50 145 -32 17 -45 18 -76 5z"/>
<path d="M15598 10375 c-15 -9 -32 -24 -38 -35 -13 -24 -13 -196 0 -221 16
-29 67 -51 101 -44 54 12 69 45 69 156 0 87 -2 101 -22 123 -29 32 -74 41
-110 21z"/>
<path d="M13330 8348 c-204 -72 -328 -278 -292 -488 40 -232 228 -381 466
-368 72 4 96 10 158 41 340 168 335 638 -9 800 -59 27 -81 32 -163 34 -79 3
-106 0 -160 -19z m245 -182 c46 -19 103 -73 128 -120 31 -58 30 -174 0 -232
-49 -92 -164 -154 -261 -139 -132 20 -221 121 -222 253 0 76 19 124 68 175 79
82 185 105 287 63z"/>
<path d="M4554 8310 c-58 -18 -83 -70 -59 -126 19 -46 41 -54 154 -54 89 0
103 2 126 23 15 13 28 37 31 58 5 30 1 42 -23 69 -27 30 -33 32 -113 36 -47 2
-99 -1 -116 -6z"/>
<path d="M5013 8309 c-41 -12 -63 -44 -63 -89 1 -39 14 -61 47 -78 16 -9 211
-12 731 -12 l709 0 27 25 c19 18 26 34 26 62 0 50 -22 80 -68 93 -47 13 -1363
12 -1409 -1z"/>
<path d="M4107 6210 c-58 -46 -44 -97 59 -200 l74 -75 -76 -75 c-42 -41 -80
-86 -85 -99 -14 -35 7 -88 41 -106 56 -29 76 -21 166 67 l84 82 78 -77 c81
-81 115 -97 164 -78 35 13 61 63 53 101 -4 17 -35 57 -81 101 -41 40 -74 78
-74 83 0 6 35 46 77 88 71 72 78 81 78 119 0 52 -38 89 -92 89 -31 0 -46 -10
-119 -82 l-85 -82 -82 82 c-73 72 -87 82 -118 82 -21 0 -47 -8 -62 -20z"/>
<path d="M14529 5301 c-22 -22 -29 -39 -29 -66 0 -33 9 -47 82 -121 l82 -84
-82 -84 c-72 -74 -82 -88 -82 -120 0 -52 36 -86 91 -86 38 0 48 6 123 79 l81
80 81 -80 c75 -73 84 -79 123 -79 55 0 91 34 91 86 0 32 -10 46 -82 120 l-82
84 82 84 c72 73 82 88 82 119 0 48 -34 86 -82 94 -36 5 -41 3 -121 -76 -46
-44 -87 -81 -92 -81 -5 0 -46 36 -91 80 -95 93 -124 101 -175 51z"/>
<path d="M7260 4444 c-120 -32 -227 -125 -284 -244 -26 -55 -31 -80 -34 -162
-6 -143 31 -241 129 -337 232 -229 633 -126 729 187 102 330 -205 646 -540
556z m225 -193 c51 -24 109 -84 131 -136 27 -65 21 -156 -14 -218 -53 -95
-145 -145 -248 -134 -162 17 -266 172 -221 328 33 111 127 179 246 179 43 0
80 -7 106 -19z"/>
<path d="M10477 3360 c-46 -36 -45 -111 2 -147 23 -18 1449 -18 1472 0 47 36
48 111 2 147 -25 20 -36 20 -738 20 -702 0 -713 0 -738 -20z"/>
<path d="M12161 3354 c-41 -34 -44 -92 -6 -129 23 -24 31 -25 135 -25 107 0
112 1 135 26 35 38 34 87 -4 125 -29 28 -32 29 -129 29 -93 0 -103 -2 -131
-26z"/>
</g>
</svg>
